<?xml version="1.0" encoding="UTF-8"?><!DOCTYPE svg PUBLIC "-//W3C//DTD SVG 1.1//EN" "http://www.w3.org/Graphics/SVG/1.1/DTD/svg11.dtd"><svg xmlns="http://www.w3.org/2000/svg" xmlns:xlink="http://www.w3.org/1999/xlink"><symbol id="basic" viewBox="0 0 443.39 512"><path d="M202.79 266.99L37.81 171.77v190.44l164.98 95.23z" fill="none"/><path d="M56.7 139.02l183.9 106.15v212.27l164.98-95.23V149.94L221.69 43.67z" fill="none"/><path fill="#fff" d="M221.69 0L0 128.13v255.91L221.69 512l221.69-127.96V128.13zM37.81 171.77L202.8 267v190.44L37.81 362.21zm367.77 190.44L240.6 457.44V245.17L56.7 139.02l165-95.35 183.89 106.27v212.27z"/></symbol><symbol id="box"><path d="M21 16V8a2 2 0 0 0-1-1.73l-7-4a2 2 0 0 0-2 0l-7 4A2 2 0 0 0 3 8v8a2 2 0 0 0 1 1.73l7 4a2 2 0 0 0 2 0l7-4A2 2 0 0 0 21 16z"/><path d="M3.27 6.96L12 12.01l8.73-5.05M12 22.08V12"/></symbol><symbol id="card" viewBox="0 0 512 338.68"><g fill="#292e34"><path d="M493.72 18.94C481.63 6.73 465.48 0 448.26 0H63.73C28.59 0 0 28.59 0 63.74v211.2c0 35.15 28.59 63.74 63.73 63.74h384.53c35.15 0 63.74-28.59 63.74-63.74V63.82c.15-16.87-6.32-32.81-18.28-44.88zm-16.81 99.91v156.09c0 15.78-12.87 28.62-28.65 28.62H63.73c-15.78 0-28.62-12.84-28.62-28.62V118.85zm0-55.11v20.01H35.1V63.74c0-15.78 12.84-28.64 28.62-28.64h384.53c15.79 0 28.66 12.86 28.66 28.64z"/><path d="M76.05 258.31h180.1c9.85 0 17.56-7.73 17.56-17.56s-7.71-17.53-17.56-17.53H76.05c-9.85 0-17.56 7.7-17.56 17.53s7.72 17.56 17.56 17.56z"/></g></symbol><symbol id="close" viewBox="0 0 512 511.99"><path d="M512 36.5L475.5 0 256 219.49 36.5 0 0 36.5 219.5 256 0 475.49l36.5 36.5L256 292.5l219.5 219.49 36.5-36.5L292.5 256z"/></symbol><symbol id="cover" viewBox="0 0 512 483.56"><path d="M491.56 0H20.41C9.51 0 0 9.35 0 20.42v442.7c0 10.8 9.3 20.44 20.41 20.44h471.15c10.91 0 20.44-9.38 20.44-20.44V20.42C512 9.73 502.81 0 491.56 0zM40.83 88.62V40.47h430.68v48.15zm0 354.06V129.1h430.68v313.59H40.83z" fill="#292e34"/></symbol><symbol id="desinger" viewBox="0 0 511.99 498"><g fill="none"><path d="M466.58 110.26L336.32 34.98l-129.93 75.03 130.35 75.18z"/><path fill="#8797c6" d="M321.18 211.67l-130.36-75.19v150.36l130.36 75.17zM160.53 136L45.42 202.44l115.11 66.53zM160.53 304.32v-.37L30.29 228.67v150.45l130.24 75.18zM351.47 362l130.24-75.16V136.49l-130.24 75.17zM190.82 454.3l114.88-66.25-114.88-66.26z"/></g><path fill="#fff" d="M336.32 0L176.09 92.54l-.42-.24L7.3 189.48c-.03.02-.06.03-.09.05L0 193.69V396.6L175.67 498 336 405.52l.32.19 175.67-101.39V101.53zm0 34.98l130.26 75.28-129.84 74.94-130.35-75.18zm-145.5 251.49V136.48l130.36 75.19v150.35l-130.36-75.17zM160.53 136v132.96L45.42 202.44zM30.29 228.67l130.24 75.28V454.3L30.29 379.12zM190.82 454.3V321.79l114.88 66.26zm290.89-167.46L351.47 362V211.66l130.24-75.17z"/></symbol><symbol id="doc" viewBox="0 0 376.58 512"><path d="M361.3 114.16l-99.25-99.25C252.03 5.42 238.6 0 225.19 0H52.48C23.55 0 0 23.55 0 52.48v407.03C0 488.45 23.55 512 52.48 512h271.61c28.94 0 52.48-23.55 52.48-52.48V151.36c.01-13.59-5.29-26.67-15.27-37.2zM240.79 46.3l89.49 89.49H256c-8.4 0-15.21-6.85-15.21-15.25zm83.3 428.46H52.48c-8.4 0-15.25-6.85-15.25-15.25V52.48c0-8.4 6.85-15.25 15.25-15.25h151.05v83.3c0 28.94 23.53 52.48 52.47 52.48h83.34V459.5c0 8.42-6.85 15.26-15.25 15.26z"/></symbol><symbol id="dollar-sign"><path d="M12 1v22M17 5H9.5a3.5 3.5 0 0 0 0 7h5a3.5 3.5 0 0 1 0 7H6"/></symbol><symbol id="favicon" viewBox="0 0 512 243.2"><path d="M38.4 51.2v153.6H192V51.2zm192-38.4v230.4H0V12.8zm160 192c46.08 0 83.2-37.12 83.2-83.2s-37.12-83.2-83.2-83.2-83.2 37.12-83.2 83.2 37.12 83.2 83.2 83.2zm0 38.4c-67.2 0-121.6-54.4-121.6-121.6S323.2 0 390.4 0 512 54.4 512 121.6s-54.4 121.6-121.6 121.6z" fill="#292e34"/></symbol><symbol id="font" viewBox="0 0 376 512"><g fill="#292e34"><path d="M93.33 281.4h18.56l-.02 1.68 57.54.14V390.1h-23.68v37.24h80.47V390.1h-19.61V283.31l53.41.12 18.62-1.68v-35.52l-185.29-.43z"/><path d="M360.74 114.16l-99.09-99.25C251.65 5.42 238.24 0 224.85 0H52.4C23.51 0 0 23.55 0 52.48v407.03C0 488.45 23.51 512 52.4 512h271.2c28.89 0 52.4-23.55 52.4-52.48V151.36c0-13.59-5.28-26.67-15.26-37.2zM240.42 46.3l89.35 89.49h-74.16c-8.39 0-15.19-6.85-15.19-15.25zm83.18 428.46H52.4c-8.39 0-15.22-6.85-15.22-15.25V52.48c0-8.4 6.84-15.25 15.22-15.25h150.82v83.3c0 28.94 23.49 52.48 52.39 52.48h83.21V459.5c0 8.42-6.84 15.26-15.22 15.26z"/></g></symbol><symbol id="full" viewBox="0 0 411.63 512.01"><g fill="#fff"><path d="M285.72 25.81c-8.01-4.41-20.36 3.04-18.21 14.69.83 4.75 4.4 8.7 8.54 10.15 65.09 24.52 108.81 87.78 108.81 157.42 0 47.2-19.15 91.06-53.89 123.48-1.69 1.53-2.95 3.45-3.64 5.54-1.95 5.92-.64 2.38 13.89 98.75l-176.44 46.07-8.34-64.18c-1.29-8.38-9.29-12.97-16.24-11.28l-51.95 11.79c-9.48-56.1-8.4-55.42-10.49-58.89-2.38-4.29-7.06-6.83-11.74-6.83H30.15C52.96 243.5 51.66 252.17 51.66 248.68l-2.01-58.87C56.19 129.22 95.28 76.84 151.73 53.1c1.36-.62 3.08-1.5 4.38-2.95 10.42-11.73-1.94-27.26-15.1-21.81C75.4 56 30.03 117.05 22.61 187.67c-.08 1.14 2.02 59.96 2.02 60.06C-.27 368.18-1.01 364.1.45 369.17c1.45 6.2 6.96 10.31 13.05 10.31h41.2c10.24 60.5 8.44 61.63 14.98 66.14 3.12 2.22 7.23 2.72 10.6 1.92l51.38-11.77c9.05 65.73 7.66 65.67 10.36 69.95 3.45 5.45 9.89 7.28 14.78 5.81 218.64-57.32 206.3-51.95 210.66-58.41 1.99-3.03 2.53-6.69 2.03-9.44l-15.19-97.35C455.88 244.88 415.96 74.9 285.72 25.81z"/><path d="M159.28 287.35c-26.76 47.06-27.14 45.77-27.88 50.15-2.41 14.34 16.98 21.94 24.8 8.84l26.14-45.13c50.71 18.91 106.71-18.86 106.71-74.55 0-28.21-15.18-54.39-39.66-68.57-.56-151.91 1.02-144.05-1.05-149.76-2.04-4.47-6.38-8.08-12.29-8.08-3.1-.01-49.23-.24-52.28-.25-4.16 0-6.61 1.41-9.44 3.92-5.82 5.79-3.73-.27-3.92 153.91-47.52 27.39-53.64 94.01-11.13 129.52zm-1.83-60.94c0-28.82 23.45-52.27 52.27-52.27 28.9 0 52.4 23.45 52.4 52.27 0 28.89-23.5 52.39-52.4 52.39-28.82 0-52.27-23.5-52.27-52.39z"/></g></symbol><symbol id="guide" viewBox="0 0 512.3 412.3"><path d="M121.15.148c-39.16 0-72.6 6.04-112.08 22.26-5.41 2.23-8.92 7.63-8.92 13.35v340.85c0 10.19 10.25 16.9 19.1 13.35 39.16-14.31 65.27-20.35 101.89-20.35 56.36 0 92.66 19.4 127.68 40.38a13.58 13.58 0 0 0 14.65 0c35.02-20.98 71.64-40.38 127.68-40.38 36.3 0 62.41 6.04 101.89 20.35 9.65 3.35 19.1-3.8 19.1-13.36V35.758c0-5.72-3.5-11.13-8.92-13.35C464.06 6.188 430.3.148 391.14.148c-50.95 0-98.39 22.89-135 41.02C219.53 23.048 172.09.148 121.15.148zm120.99 65.82v307.47c-67.06-36.16-131.34-43.19-213.33-15.9V46.258c31.84-12.4 59.22-17.49 92.34-17.49 8.11 1.88 31.21-6.44 120.99 37.2zm241.35-19.71v311.28c-75.97-24.52-139.27-24.04-213.33 15.9V65.968c73.97-36.6 126.68-52.27 213.33-19.71z" fill="#292e34" stroke="#292e34" stroke-miterlimit="10" stroke-width=".3"/></symbol><symbol id="logo" viewBox="0 0 512 402"><g fill="#292e34"><path d="M512 0H0v402h512zm-38.84 38.82v298.94L356.63 227.29l-56.85 66L195.97 186 38.84 337.76V38.82zM312.85 363.18H67.8l127.47-122.12zm13.42-41.3l32.84-38.12 84.74 79.41h-76.62z"/><path d="M288.84 204.71c39.9 0 72.39-32.47 72.39-72.35S328.74 60 288.84 60s-72.39 32.47-72.39 72.35v.71c0 39.53 32.13 71.65 71.68 71.65zm0-105.18c18.71 0 33.54 15.18 33.54 33.53 0 18.71-15.18 33.53-33.54 33.53-18.71 0-33.54-15.18-33.54-33.53-.35-18.35 14.12-33.18 32.13-33.53z"/></g></symbol><symbol id="mail"><path d="M4 4h16c1.1 0 2 .9 2 2v12c0 1.1-.9 2-2 2H4c-1.1 0-2-.9-2-2V6c0-1.1.9-2 2-2z"/><path d="M22 6l-10 7L2 6"/></symbol><symbol id="menu" viewBox="0 0 512 416"><path d="M0 0h512v39.26H0zM0 188.44h512v39.26H0zM0 376.74h512V416H0z"/></symbol><symbol id="more-horizontal"><circle cx="12" cy="12" r="1"/><circle cx="19" cy="12" r="1"/><circle cx="5" cy="12" r="1"/></symbol><symbol id="out" viewBox="0 0 512 512"><path d="M58.37 512C26.23 512 0 485.79 0 453.31V124.4c0-32.12 26.23-58.32 58.37-58.32h128.55l50.98 50.94H74.99c-13.3 0-24.01 10.71-24.01 23.99v296.42c0 13.29 10.71 23.99 24.01 23.99h296.63c13.3 0 24.01-10.71 24.01-23.99V273.9l50.98 50.94V453.3c0 32.12-26.23 58.32-58.37 58.32H58.37zm148.87-207.46c-13.3-13.29-13.3-34.7 0-47.62L367.93 96.35l-66.49-66.81C289.91 16.74 299.47 0 313.63 0h172.88C500.55 0 512 11.44 512 25.47v172.76c0 14.32-16.85 23.43-29.55 12.55l-66.49-66.81-160.7 160.57c-13.84 13.83-35.93 12.8-48.02 0z" fill="#292e34"/></symbol><symbol id="paper" viewBox="0 0 512 430"><path d="M512 0H123.79v142.98H81.71C36.82 142.98.35 179.16 0 224.13v124.01C0 393.11 36.47 430 81.71 430h333.5c53.3 0 96.79-43.21 96.79-96.96v-.7zM123.79 348.15c-2.81 23.19-23.85 39.35-46.99 36.54-18.94-2.46-34.02-17.57-36.47-36.54V224.13c0-23.19 18.94-42.16 42.08-42.16h42.08zm348.58-15.46c0 31.62-25.6 57.26-57.16 57.26H151.15c7.72-12.65 11.92-27.4 11.92-42.16V39.7h309.3z" fill="#292e34"/></symbol><symbol id="planet" viewBox="0 0 512.17 512"><path d="M485.047 142.698c25.54-53.211 33.058-100.084 7.423-124.606-33.057-30.86-92.741-7.424-124.713 7.423C333.613 9.596 296.402.002 255.92.002 62.933.002-56.206 202.502 26.794 368.38c-59.456 123.896 5.252 173.852 117.29 117.183 215.27 105.324 448.645-123.615 340.963-342.866zM37.487 472.713c-12.77-11.671-10.693-40.44 5.346-77.733 12.77 20.274 29.789 38.364 47.905 53.211 117.01-38.029 314.364-228.376 360.166-359.87-15.933-18.103-34.144-34.116-53.252-47.865 20.288-8.509 59.684-20.274 77.8-5.346 31.973 28.783-25.54 153.282-153.416 282.15-98.088 96.909-245.06 191.647-284.55 155.453z" fill="#fff"/></symbol><symbol id="presentation" viewBox="0 0 464 421.4"><path fill="#292E34" d="M420.2 0H43.8C19.9 0 0 19.6 0 43.6v241.1c0 24 19.9 43.5 43.8 43.5h137.5l-79.5 65.5 22.8 27.7 89.2-73.6v67.5h35.9v-67.4l89.2 73.6 22.8-27.7-79.5-65.5h137.5c24.2-.1 44.1-19.6 44.1-43.6V43.6C464 19.6 444.1 0 420.2 0zM35.9 43.6c0-4.2 3.7-7.7 7.9-7.7H420c4.2 0 7.9 3.5 7.9 7.7v26.9h-392V43.6zm392.2 241.1c0 4.2-3.7 7.6-7.9 7.6H43.8c-4.2 0-7.9-3.3-7.9-7.6V106.4h392.2v178.3z"/></symbol><symbol id="profile" viewBox="0 0 512 512"><path d="M256 0C114.65 0 0 114.65 0 256s114.65 256 256 256 256-114.65 256-256C511.62 114.65 397.35 0 256 0zm106.76 440.2c-66.16 38.72-147.74 38.72-213.52 0v-13.91c0-59.02 47.74-106.76 106.76-106.76s106.76 47.74 106.76 106.76zM192.09 213.15c0-35.34 28.57-63.91 63.91-63.91s63.91 28.57 63.91 63.91-28.57 63.91-63.91 63.91c-35.34-.01-63.91-28.58-63.91-63.91zm217.28 190.59l-5.26 5.26c-6.01-49.25-35.71-92.1-79.32-115.03C369.9 256 375.54 188.71 337.57 143.6S232.31 92.85 187.2 130.82s-50.75 105.26-12.78 150.37c3.76 4.51 8.27 9.02 12.78 12.78-43.98 22.93-73.68 65.79-79.32 114.65-84.96-81.57-87.21-216.53-5.26-301.11s216.9-87.21 301.49-5.26 87.21 216.9 5.26 301.49z" fill="#292e34"/></symbol><symbol id="quote-r" viewBox="0 0 512 370"><path d="M295.22 308.53c39.94-19.29 69.66-40.37 89.14-63.27 19.5-22.89 29.24-52.43 29.24-88.58-8.91 2.48-47.74 3.77-79.15-18.69-18.54-13.24-27.8-31.53-27.8-54.82C306.65 28.98 348.57 0 400.76 0 478.91-.01 512 55.8 512 133.77c0 105.27-58.94 184-176.84 236.22zM0 308.53c39.94-19.29 69.66-40.37 89.14-63.27 19.5-22.89 29.24-52.43 29.24-88.58-8.91 2.48-47.74 3.77-79.15-18.69-18.54-13.24-27.8-31.53-27.8-54.82C11.43 28.98 53.35 0 105.54 0c78.15 0 111.25 55.8 111.25 133.78 0 105.27-58.94 184-176.84 236.22z"/></symbol><symbol id="quote" viewBox="0 0 512 370"><path d="M216.78 61.46c-39.94 19.29-69.66 40.37-89.14 63.27-19.5 22.89-29.24 52.43-29.24 88.58 8.91-2.48 47.74-3.77 79.15 18.69 18.54 13.24 27.8 31.53 27.8 54.82 0 54.19-41.92 83.17-94.11 83.17C33.09 370 0 314.19 0 236.22 0 130.95 58.94 52.22 176.84 0zm295.22 0c-39.94 19.29-69.66 40.37-89.14 63.27-19.5 22.89-29.24 52.43-29.24 88.58 8.91-2.48 47.74-3.77 79.15 18.69 18.54 13.24 27.8 31.53 27.8 54.82 0 54.19-41.92 83.17-94.11 83.17-78.15 0-111.25-55.8-111.25-133.78 0-105.27 58.94-184 176.84-236.22z"/></symbol><symbol id="s1" viewBox="0 0 512 512"><path d="M172.34 205c-16.01 0-29.03-13.02-29.03-29.03s13.02-29.03 29.03-29.03 29.03 13.02 29.03 29.03S188.35 205 172.34 205zm0-43.15c-7.78 0-14.12 6.33-14.12 14.12s6.33 14.12 14.12 14.12c7.78 0 14.12-6.33 14.12-14.12s-6.34-14.12-14.12-14.12zM172.34 370.23c-16.01 0-29.03-13.02-29.03-29.03s13.02-29.03 29.03-29.03 29.03 13.02 29.03 29.03-13.02 29.03-29.03 29.03zm0-43.15c-7.78 0-14.12 6.33-14.12 14.12s6.33 14.12 14.12 14.12c7.78 0 14.12-6.33 14.12-14.12s-6.34-14.12-14.12-14.12zM337.62 370.23c-16 0-29.03-13.02-29.03-29.03s13.02-29.03 29.03-29.03 29.03 13.02 29.03 29.03-13.02 29.03-29.03 29.03zm0-43.15c-7.78 0-14.12 6.33-14.12 14.12s6.33 14.12 14.12 14.12 14.12-6.33 14.12-14.12-6.34-14.12-14.12-14.12zM337.62 205c-16 0-29.03-13.02-29.03-29.03s13.02-29.03 29.03-29.03 29.03 13.02 29.03 29.03S353.63 205 337.62 205zm0-43.15c-7.78 0-14.12 6.33-14.12 14.12s6.33 14.12 14.12 14.12 14.12-6.33 14.12-14.12-6.34-14.12-14.12-14.12zM296.36 310.48l-93.3-93.3a7.454 7.454 0 0 1 10.54-10.54l93.3 93.3a7.454 7.454 0 0 1 0 10.54 7.436 7.436 0 0 1-10.54 0zM275.19 245.81c-1.91 0-3.82-.73-5.27-2.18a7.454 7.454 0 0 1 0-10.54l26.44-26.45a7.454 7.454 0 0 1 10.54 10.54l-26.44 26.45a7.452 7.452 0 0 1-5.27 2.18zM203.06 310.48a7.454 7.454 0 0 1 0-10.54l25.05-25.05a7.454 7.454 0 0 1 10.54 10.54l-25.05 25.05a7.436 7.436 0 0 1-10.54 0z"/><path d="M256 512C114.84 512 0 397.16 0 256S114.84 0 256 0s256 114.84 256 256-114.84 256-256 256zm0-497.09C123.06 14.91 14.91 123.06 14.91 256S123.06 497.09 256 497.09 497.09 388.94 497.09 256 388.94 14.91 256 14.91z"/></symbol><symbol id="s2" viewBox="0 0 512 512"><path d="M318.73 178.41H193.27c-14.37 0-26.05 11.83-26.05 26.2v76.8c0 14.37 11.68 26.3 26.05 26.3h24.21c34.5 36.99 33.14 39.22 38.52 39.22 1.94 0 3.73-.75 5.02-2.14l33.5-37.08h24.21c14.37 0 26.05-11.93 26.05-26.3v-76.9c0-14.27-11.68-26.1-26.05-26.1zm12.53 102.99c0 6.91-5.67 12.78-12.53 12.78-26.02.59-28.96-1.48-32.21 2.14L256 330.07l-30.47-33.7c-3.41-3.67-6.19-1.51-32.21-2.14-6.91 0-12.53-5.87-12.53-12.78V204.5c0-6.91 5.67-12.68 12.53-12.68h125.46c6.91 0 12.53 5.77 12.53 12.68v76.9z"/><path d="M256 512C114.84 512 0 397.16 0 256S114.84 0 256 0s256 114.84 256 256-114.84 256-256 256zm0-497.09C123.06 14.91 14.91 123.06 14.91 256S123.06 497.09 256 497.09 497.09 388.94 497.09 256 388.94 14.91 256 14.91z"/></symbol><symbol id="s3" viewBox="0 0 512 512"><path d="M256 512C114.84 512 0 397.16 0 256S114.84 0 256 0s256 114.84 256 256-114.84 256-256 256zm0-497.09C123.06 14.91 14.91 123.06 14.91 256S123.06 497.09 256 497.09 497.09 388.94 497.09 256 388.94 14.91 256 14.91z"/><path d="M322.56 257.74c-32.45 21.07-95.19 22.67-133.12 0-16.4-10.39-25.95-23.31-25.95-37.18 0-13.82 9.49-26.79 25.95-37.18 17.3-11.23 41.51-16.4 66.56-16.4 76.47-.01 125.29 53.56 66.56 90.76zm0 35.44c-32.45 21.07-95.19 22.67-133.12 0-29.31-18.56-25.62-37.95-25.95-38.92 30.31 35.56 111.85 48.58 165.98 15.56 7.75-4.32 13.82-9.49 19.04-15.56-.34 1.02 3.49 20.33-25.95 38.92zm0 35.44c-32.45 21.07-95.19 22.67-133.12 0-29.31-18.56-25.62-37.95-25.95-38.92 5.17 6.06 11.23 11.23 19.04 15.56 53.36 32.42 134.76 20.72 165.98-15.56-.34 1.02 3.49 20.33-25.95 38.92zm6.91-156.48c-66.87-40.63-176.17-11.95-178.9 46.68v72.62c0 59.16 111.03 89.82 178.9 48.42 20.73-12.97 31.96-30.27 31.96-48.42v-70.88c0-18.15-11.23-35.44-31.96-48.42z"/></symbol><symbol id="s4" viewBox="0 0 512 512"><path d="M256 512C114.84 512 0 397.16 0 256S114.84 0 256 0s256 114.84 256 256-114.84 256-256 256zm0-497.09C123.06 14.91 14.91 123.06 14.91 256S123.06 497.09 256 497.09 497.09 388.94 497.09 256 388.94 14.91 256 14.91z"/><path d="M166.72 256c0-78.96 93.66-122.21 153.4-69.94l-13.82 13.82c-46.48-38.65-119.6-6.9-119.6 56.12 0 63.46 73.66 94.32 119.6 56.12l13.82 13.82c-61.59 53.65-153.4 6.66-153.4-69.94z"/></symbol><symbol id="s5" viewBox="0 0 512 512"><path d="M256 512C114.84 512 0 397.16 0 256S114.84 0 256 0s256 114.84 256 256-114.84 256-256 256zm0-497.09C123.06 14.91 14.91 123.06 14.91 256S123.06 497.09 256 497.09 497.09 388.94 497.09 256 388.94 14.91 256 14.91z"/><path d="M282.59 302.23l10.04-12.58c1.74 1.64 3.73 3.18 6.26 4.23 19.81 11.54 39.79 6.12 53.09-7.26 33.18-36.16-9.61-92.24-53.83-65.76-11.82 7.84-14.45 15.02-26.49 29.53-38.31 45.76-32.32 43.55-49.81 57.61-9.84 3.93-20.33 7.56-31.32 7.56-50.11 0-76.89-60.85-43.25-99.27 19.99-21.71 54.61-28.05 82.02-6.51l-10.79 12.92c-1.89-1.79-4.03-3.53-6.91-4.62-19.03-9.31-38.81-5.41-52.69 8.55-33.18 36.16 9.61 92.24 53.83 65.76 4.6-3.05 7.2-5.73 10.89-9.44 55.9-71.85 55.17-69.47 65.91-78.19 23.99-14.09 55.18-10.02 75.31 11.73 19.83 21.72 19.73 56.57-.15 79.33-20.38 21.96-55.1 27.63-82.11 6.41z"/></symbol></svg>